<svg xmlns="http://www.w3.org/2000/svg" viewBox="0 0 38.37 21.93">
   <path transform="translate(38.37, 0) rotate(90)" d="m.26,30.97l3.51-1.11c1.32,3.54,3.99,4.58,6.82,4.36,5.07-.4,6.76-6.08,7.14-11.1-1.98,2.1-4.95,3.17-7.48,3.06C2.16,25.74.09,19.26.01,12.47-.21,6.75,2.15,2.6,6.21.7c2.15-.96,7.06-.96,9.22.18,4.96,2.62,6.79,7.14,6.46,17.94,0,8.88-1.88,19.23-11.39,19.46-5.49.76-9.67-3.52-10.23-7.31h0Zm13.77-9.73c1.65-1.05,2.58-2.03,3.32-3.5.61-1.21.82-1.84.64-4.34-.45-6.44-3.82-10.1-8.71-9.37-2.73.41-4.22,1.94-5.08,4.78-1.58,5.26.42,11.4,4.18,12.82,1.69.64,4.3.46,5.65-.4h0Z"/>
</svg>