<svg  xmlns="http://www.w3.org/2000/svg" viewBox="0 0 23.29 38.37">
  <path d="m3.2,25.67H0v-4.37h3.2s.02-2.36.12-6.51c.2-8.86.42-10.23,2.98-12.67,5.06-4.82,13.52-.89,13.43,6.35-.15,10.22-.04,19.97-.34,21.35-.53,2.43-.58,2.57-.37,3.01.44.89,4.27,1.28,4.27,1.03v4.31c-2.92.23-4.13-.05-6.47-1.72-1.46,1.41-5.9,2.82-9.43,1.16-2.69-1.27-4.72-4.54-4.17-11.94h0Zm10.82,7.63c-1.59-2.3-4.26-5.43-6.77-6.54-.16,2.64.07,4.85,1,6.05,1.48,1.9,3.86,2.33,5.77.5h0Zm1.32-25.25c-1.18-3.34-4.2-4.47-6.42-2.38-1.38,1.3-1.6,2.67-1.63,10.1-.02,4.59-.02,6.51-.02,6.51,4.3,1.4,8.33,6.42,8.29,6.36l.11-13.87c.08-2.25-.03-4.5-.33-6.72h0Z"/>
</svg>