<svg xmlns="http://www.w3.org/2000/svg" viewBox="0 0 24.91 38.37">
  <path class="cls-1" d="m0,27.13c.18-5.15,2.04-7.08,5.71-9.78-2.92-2.11-4.15-5.22-3.9-7.87C2.41,3.07,7.35-.13,12.75,0c5.4.14,10.05,4.43,10.41,9.09.31,4.05-.89,6.01-3.76,8.14,3.41,2.88,5.58,4.77,5.5,9.84-.08,5.07-4.39,11.11-11.9,11.29C5.49,38.55-.18,32.28,0,27.13H0Zm20.97.02c.32-4.66-3.8-7.81-8.44-7.86-4.53-.05-8.57,3.82-8.57,8.01,0,4.5,5.27,6.94,8.67,6.95,4.13.02,8.07-3.09,8.35-7.1h0Zm-1.49-16.68c.09-3.92-3.53-6.74-7.26-6.63-3.32.1-6.83,2.64-6.83,5.92,0,4.11,4,6.16,7.41,6.24,3.1.07,6.62-2.57,6.69-5.53h0Z"/>
</svg>